<?xml version="1.0" encoding="UTF-8"?>
<!DOCTYPE svg PUBLIC "-//W3C//DTD SVG 1.1//EN" "http://www.w3.org/Graphics/SVG/1.1/DTD/svg11.dtd">
<!-- Creator: CorelDRAW X7 -->
<svg xmlns="http://www.w3.org/2000/svg" xml:space="preserve" width="2278px" height="802px" version="1.1" style="shape-rendering:geometricPrecision; text-rendering:geometricPrecision; image-rendering:optimizeQuality; fill-rule:evenodd; clip-rule:evenodd"
viewBox="0 0 2505 882"
 xmlns:xlink="http://www.w3.org/1999/xlink">
 <defs>
  <style type="text/css">
   <![CDATA[
    .fil2 {fill:none}
    .fil0 {fill:#D2D3D5}
    .fil1 {fill:#D2D3D5;fill-rule:nonzero}
   ]]>
  </style>
 </defs>
 <g id="Capa_x0020_1">
  <metadata id="CorelCorpID_0Corel-Layer"/>
  <path class="fil0" d="M2504 435c5,60 -38,104 -89,118 -5,1 -9,2 -14,3 -15,3 -31,4 -47,4 -60,0 -111,-32 -144,-67l55 -61c33,37 137,65 144,3 4,-91 -198,-14 -190,-180 10,-131 168,-143 262,-62l-56 60c-43,-48 -130,-54 -128,9 12,92 189,-2 207,173z"/>
  <path class="fil1" d="M237 466l-91 0 91 -214 91 214 38 94c37,0 73,0 111,0l-239 -560 -238 560 276 0 -39 -94z"/>
  <path class="fil0" d="M909 322l0 -6c0,-91 -73,-164 -164,-164 -4,0 -7,0 -11,0 -85,6 -153,77 -153,164l0 244 95 0 0 -243c0,-38 31,-69 69,-69 38,0 70,31 70,69l0 243 94 0 0 -238z"/>
  <path class="fil0" d="M1322 177c-33,-22 -72,-34 -114,-34 -115,0 -209,93 -209,208 0,115 94,209 209,209 115,0 208,-93 209,-208l0 -352 -95 0 0 177zm-114 60c-63,0 -115,51 -115,114 0,63 52,115 115,115 63,0 114,-52 114,-115 0,-63 -51,-114 -114,-114z"/>
  <path class="fil0" d="M2088 502c-81,78 -210,78 -291,-2 -82,-81 -83,-213 -3,-295 81,-82 213,-84 296,-3 13,13 25,28 34,44l-213 216c35,10 74,4 104,-20l8 -8 65 68zm-227 -232c35,-35 87,-43 130,-24l-152 155c-20,-43 -13,-95 22,-131z"/>
  <path class="fil0" d="M1662 152c4,0 8,0 11,0l0 96c-38,0 -69,31 -69,69l0 243 -95 0 0 -244c0,-87 68,-158 153,-164z"/>
  <g id="_2580998821136">
   <line class="fil2" x1="1456" y1="785" x2="1456" y2= "785" />
   <path class="fil0" d="M1397 667c60,0 108,48 108,107l0 108 -49 0 0 -17c-17,11 -37,17 -59,17 -59,0 -107,-48 -107,-108 0,-59 48,-107 107,-107zm0 48c-33,0 -59,27 -59,59 0,33 26,60 59,60 33,0 60,-27 60,-60 0,-32 -27,-59 -60,-59z"/>
   <path class="fil0" d="M1706 852c-19,18 -45,30 -74,30 -60,0 -108,-48 -108,-108 0,-59 48,-107 108,-107 29,0 55,11 74,30l-33 35c-11,-10 -25,-17 -41,-17 -33,0 -59,27 -59,59 0,33 26,59 59,59 16,0 30,-6 41,-16l33 35z"/>
   <path class="fil0" d="M1771 593c13,0 24,11 24,25 0,13 -11,24 -24,24 -14,0 -25,-11 -25,-24 0,-14 11,-25 25,-25z"/>
   <path class="fil0" d="M2244 759l0 -3c0,-46 -38,-84 -84,-84 -2,0 -4,0 -6,0 -44,3 -79,39 -79,84l0 126 49 0 0 -125c0,-20 16,-36 36,-36 20,0 36,16 36,36l0 125 48 0 0 -123z"/>
   <path class="fil0" d="M2397 667c-59,0 -107,48 -107,107 0,60 48,108 107,108 60,0 108,-48 108,-108 0,-59 -48,-107 -108,-107zm0 48c-33,0 -59,27 -59,59 0,33 26,60 59,60 33,0 60,-27 60,-60 0,-32 -27,-59 -60,-59z"/>
   <polygon class="fil0" points="1795,882 1747,882 1747,672 1795,672 "/>
   <path class="fil0" d="M1933 667c59,0 108,48 108,107l0 108 -49 0 0 -17c-17,11 -37,17 -59,17 -59,0 -108,-48 -108,-108 0,-59 49,-107 108,-107zm0 48c-33,0 -60,27 -60,59 0,33 27,60 60,60 33,0 59,-27 59,-60 0,-32 -26,-59 -59,-59z"/>
   <path class="fil0" d="M1025 594c38,0 74,15 99,40l-34 35c-17,-16 -40,-26 -66,-26 -52,0 -95,42 -95,95 0,52 43,95 95,95 26,0 50,-11 67,-28l-66 -68 36 -37 94 98c-22,49 -72,84 -130,84 0,0 -1,0 -1,0 -79,0 -144,-65 -144,-144 0,-1 0,-1 0,-2 1,-79 65,-142 144,-142 0,0 1,0 1,0z"/>
   <path class="fil0" d="M1258 672c2,0 3,0 5,0l0 49c-19,0 -35,16 -35,36l0 125 -49 0 0 -126c0,-45 35,-81 79,-84z"/>
  </g>
 </g>
</svg>
